<svg xmlns="http://www.w3.org/2000/svg" viewBox="0 0 499.93 160.98"><defs><style>.cls-1{fill:#fff;}</style></defs><g id="Layer_2" data-name="Layer 2"><g id="Layer_1-2" data-name="Layer 1"><path class="cls-1" d="M59.4,18.87c4.21,0,6.94,1.08,8,5.34q3.49,13.7,12.94,51.2a.22.22,0,0,0,.35.11l.09,0a.2.2,0,0,0,.08-.12L102.29.54A.75.75,0,0,1,103,0l15.35,0a.4.4,0,0,1,.39.52q0,.12-27.87,91.17-1.84,6-8.73,6.17C76.53,98,72,97.77,70.4,91.74q-.8-3-10.6-42.32-.15-.6-.39-.6c-.15,0-.28.2-.38.6Q49.27,88.75,48.48,91.75c-1.59,6-6.12,6.28-11.74,6.17q-6.89-.14-8.74-6.16Q.05.74,0,.62A.4.4,0,0,1,.41.1l15.35,0a.76.76,0,0,1,.72.54L38,75.41a.34.34,0,0,0,.08.12s.07,0,.09,0a.22.22,0,0,0,.35-.11q9.41-37.53,12.88-51.22C52.45,20,55.18,18.87,59.4,18.87Z"/><path class="cls-1" d="M391.59.53H404a.47.47,0,0,1,.46.46q0,55.67,0,58.56-.1,7.82,1.16,11.06a21.86,21.86,0,0,0,19.72,14,.63.63,0,0,1,.6.62V97.77a.65.65,0,0,1-.7.64q-23.85-1.72-32.74-23.8c-1-2.54-1.54-7-1.55-10.61q0-41.89,0-62.82A.65.65,0,0,1,391.59.53Z"/><path class="cls-1" d="M267.43,63.16a34.24,34.24,0,0,1-3.76,15.78.55.55,0,0,0,.13.67C277.73,91.47,299,81.11,299,63.15s-21.25-28.3-35.17-16.43a.56.56,0,0,0-.13.67A34.12,34.12,0,0,1,267.43,63.16Zm-13.63,0a21.47,21.47,0,1,0-21.47,21.47A21.47,21.47,0,0,0,253.8,63.15M211.43,35c13.35-9.49,30.72-9.26,43.25,1.14a.44.44,0,0,0,.56,0c11.58-9.85,28.83-10.63,41.4-2.37A36,36,0,0,1,310.2,50.34,34,34,0,0,1,312.28,68c-1.85,14.72-13.18,26.34-27.66,29.66a58.07,58.07,0,0,1-9.33.32,31.12,31.12,0,0,1-19.84-7.57.7.7,0,0,0-.91,0,34.94,34.94,0,0,1-15.87,7.37,74.17,74.17,0,0,1-8.16.22c-14.72,0-27.41-10.87-31.7-24.25q-1.78-5.56-1.58-18,.09-5.31,0-54.38a.7.7,0,0,1,.7-.7H210.3a.54.54,0,0,1,.54.54V34.66a.37.37,0,0,0,.59.3"/><path class="cls-1" d="M178.38,55.68Q172.64,43.08,160,41.77c-16.56-1.7-29.64,17.36-20.25,31.87q6.16,9.51,18,11a.51.51,0,0,1,.44.5V97.79a.44.44,0,0,1-.46.44,36.76,36.76,0,0,1-32.5-23.39c-8.3-21.78,8.18-45.81,31.28-46.7a34.48,34.48,0,0,1,28.26,12q6.6,7.39,8.31,19a91.66,91.66,0,0,1,.1,10,.59.59,0,0,1-.59.57H158.21a.61.61,0,0,1-.61-.61V56.74a.58.58,0,0,1,.58-.59h19.9A.33.33,0,0,0,178.38,55.68Z"/><path class="cls-1" d="M351.68,28.47c16,0,29.09,10.33,33.81,25.37q1.59,5.08,1.32,17-.09,4.05,0,26.83a.65.65,0,0,1-.65.65H373.74a.62.62,0,0,1-.61-.6q-.11-6.06,0-33.51c.06-12.19-9.08-22.12-21.46-22.12S330.15,52,330.21,64.21q.12,27.45,0,33.51a.62.62,0,0,1-.61.6H317.2a.65.65,0,0,1-.65-.65q.07-22.78,0-26.83-.27-11.93,1.32-17C322.58,38.8,335.66,28.47,351.68,28.47Z"/><path class="cls-1" d="M499.91,29.16q-.11,11.77,0,48.69.06,17.69-1,21.67c-3.88,14.94-17.65,26.48-33.52,26.33a.61.61,0,0,1-.61-.61V113a.6.6,0,0,1,.57-.6q12.75-.89,18.71-11.89c1.6-3,1.81-5.64,2.16-9a.21.21,0,0,0-.33-.19c-20.16,14.12-47.32,5.61-54.67-18.19a40.45,40.45,0,0,1-1.43-12q.09-17.77,0-32a.61.61,0,0,1,.61-.62H443a.47.47,0,0,1,.48.47q.1,22.79,0,29.84c-.14,9.28,1.42,16,8.49,21.39a20.83,20.83,0,0,0,15,4.35,21.94,21.94,0,0,0,18.48-14.77q1-3,.86-10.17,0-.26,0-30.45a.67.67,0,0,1,.67-.67h12.28A.68.68,0,0,1,499.91,29.16Z"/><path class="cls-1" d="M115.84,128.73a2.79,2.79,0,1,1-2.79-2.79A2.79,2.79,0,0,1,115.84,128.73Z"/><path class="cls-1" d="M151.84,128.73a2.79,2.79,0,1,1-2.79-2.79A2.79,2.79,0,0,1,151.84,128.73Z"/><path class="cls-1" d="M402.84,128.73a2.79,2.79,0,1,1-2.79-2.79A2.79,2.79,0,0,1,402.84,128.73Z"/><rect class="cls-1" x="193.92" y="126.98" width="4.46" height="26.98" rx="0.32"/><path class="cls-1" d="M286.18,150.24A6.3,6.3,0,1,0,280.3,144,6.08,6.08,0,0,0,286.18,150.24ZM280.08,127a.28.28,0,0,1,.28.28v8.44a.36.36,0,0,0,.57.28,9.44,9.44,0,0,1,8-1.74c5.1,1.14,7.74,5.19,7.49,10.2-.44,8.56-8.77,12-15.62,7.5a.37.37,0,0,0-.58.31v1.18a.54.54,0,0,1-.54.53H276.5a.6.6,0,0,1-.59-.59V127.26a.28.28,0,0,1,.29-.28h3.87"/><path class="cls-1" d="M381.68,150.24a6.3,6.3,0,1,0-5.83-6.29A6.07,6.07,0,0,0,381.68,150.24Zm10.24-23v26.11a.58.58,0,0,1-.59.59h-3.15a.54.54,0,0,1-.54-.53v-1.18a.37.37,0,0,0-.58-.31c-6.85,4.48-15.18,1.06-15.61-7.5-.25-5,2.39-9.06,7.49-10.2a9.44,9.44,0,0,1,8,1.74.36.36,0,0,0,.57-.28v-8.44a.29.29,0,0,1,.28-.28h3.87a.29.29,0,0,1,.29.28"/><path class="cls-1" d="M86.9,132.32l0,17.32a.36.36,0,0,0,.36.36h6.09a8.75,8.75,0,0,0,8.83-8.66v-.74A8.76,8.76,0,0,0,93.35,132H87.26A.36.36,0,0,0,86.9,132.32Zm-4.72-3.89a.46.46,0,0,1,.46-.46l11.22,0a12.88,12.88,0,0,1,13.08,12.67v.64A12.87,12.87,0,0,1,93.9,154l-11.22,0a.46.46,0,0,1-.46-.46l0-25.1"/><path class="cls-1" d="M232.63,128c.63,0,1.18,0,1.67.06a.77.77,0,0,1,.68.53l6,18.55a.24.24,0,0,0,.46,0l6.07-18.88a.34.34,0,0,1,.32-.23H252a.21.21,0,0,1,.2.27l-8.1,25.17a.8.8,0,0,1-.76.55h-3.78a.85.85,0,0,1-.81-.59l-5.82-17.87a.32.32,0,0,0-.13-.2l-.13,0-.12,0a.32.32,0,0,0-.14.2l-5.85,17.86a.85.85,0,0,1-.81.59h-3.78a.8.8,0,0,1-.76-.55l-8-25.18a.2.2,0,0,1,.2-.27h4.12a.36.36,0,0,1,.32.23l6,18.89a.24.24,0,0,0,.46,0l6-18.54A.75.75,0,0,1,231,128C231.44,128,232,128,232.63,128Z"/><path class="cls-1" d="M311.34,147.44a13.36,13.36,0,0,0,10.42,2.37c4.13-.62,4.19-5,.18-6-6.08-1.55-12.69-2.66-11.9-9,1.07-8.56,12.53-7.68,18.18-4.87a.35.35,0,0,1,.17.42l-1,3.19a.35.35,0,0,1-.51.2c-2.66-1.53-12.11-3.88-12.18,1.56a3,3,0,0,0,2.32,2.81c6.31,1.61,15.61,2.85,11.73,11.7-.61,1.39-2.05,2.49-4.34,3.28q-6.88,2.38-14.48-1.71a.52.52,0,0,1-.25-.62l1-3.16A.43.43,0,0,1,311.34,147.44Z"/><path class="cls-1" d="M157.47,130.74a.23.23,0,0,1,.23-.23h4a.26.26,0,0,1,.26.26v3.74a.47.47,0,0,0,.47.47h4.49a.33.33,0,0,1,.33.33v2.77a.33.33,0,0,1-.33.33h-4.31a.62.62,0,0,0-.62.61c0,.47,0,2.87,0,7.2,0,3.93,1.58,5,5,3.43a.28.28,0,0,1,.38.17l.89,2.75a.31.31,0,0,1-.17.37c-5.23,2.47-10.61.6-10.58-5.72,0-4.85,0-7.55,0-8.08a.72.72,0,0,0-.73-.71h-2.15a.41.41,0,0,1-.41-.42v-2.48a.56.56,0,0,1,.56-.56h2.14a.58.58,0,0,0,.59-.59Z"/><path class="cls-1" d="M334.48,130.74a.23.23,0,0,1,.23-.23h3.94a.26.26,0,0,1,.26.26v3.74a.47.47,0,0,0,.47.47h4.49a.33.33,0,0,1,.33.33v2.77a.33.33,0,0,1-.33.33h-4.31a.62.62,0,0,0-.62.61c0,.47,0,2.87,0,7.2,0,3.93,1.58,5,5,3.43a.28.28,0,0,1,.38.17l.89,2.75a.32.32,0,0,1-.17.37c-5.23,2.47-10.61.6-10.58-5.72q0-7.29,0-8.08a.72.72,0,0,0-.73-.71h-2.15a.42.42,0,0,1-.41-.42v-2.48a.56.56,0,0,1,.56-.56h2.14a.59.59,0,0,0,.59-.59Z"/><rect class="cls-1" x="110.92" y="133.98" width="4.46" height="19.98" rx="0.33"/><path class="cls-1" d="M136.57,143.48a5.84,5.84,0,1,0-5.84,5.84A5.83,5.83,0,0,0,136.57,143.48Zm.11-7.75a2.84,2.84,0,0,0-.09-.94.68.68,0,0,1,.66-.83h2.92a.73.73,0,0,1,.73.73q.07,11.91-.06,17.25c-.25,10.66-12.45,10.48-19.11,6.63a.46.46,0,0,1-.17-.63l1.5-2.6a.4.4,0,0,1,.56-.15c4.61,2.67,13,3.87,12.89-3.95a.32.32,0,0,0-.5-.25c-6.86,4.85-16.28.43-15.5-8.45.69-7.89,9.66-11,15.49-6.53a.43.43,0,0,0,.68-.28"/><rect class="cls-1" x="146.92" y="133.97" width="4.46" height="19.98" rx="0.32"/><path class="cls-1" d="M183.29,146a23.68,23.68,0,0,0-5.86.31,1.91,1.91,0,0,0-1.52,2.22,2.18,2.18,0,0,0,1.42,1.76q4,1.65,6.94-1.77A1.53,1.53,0,0,0,183.29,146Zm.75,6.28a9,9,0,0,1-8.66,1.18c-4.13-1.4-5.48-6.28-1.76-9,2.5-1.82,6.3-1.42,10.38-1.48a.6.6,0,0,0,.57-.7q-1.06-5.89-7.33-4.13a7.48,7.48,0,0,0-3.15,1.58.49.49,0,0,1-.8-.21l-1-3a.56.56,0,0,1,.29-.68c6.38-3,15.86-3.27,16.21,6.19.13,3.65.15,7.48.06,11.51a.44.44,0,0,1-.44.43H185.1a.44.44,0,0,1-.44-.43v-1a.39.39,0,0,0-.62-.32"/><path class="cls-1" d="M257.16,143l10.22-.06a.16.16,0,0,0,.16-.16v-.06a5.22,5.22,0,0,0-5.27-5.19h0a5.25,5.25,0,0,0-5.23,5.25v.06A.16.16,0,0,0,257.16,143Zm14.09,3H257.53a.64.64,0,0,0-.51,1q4.37,5.67,11.06,1.53a.32.32,0,0,1,.39,0l2.06,2.06a.29.29,0,0,1,0,.43c-5.76,5-16.63,3.39-17.95-4.84a10.65,10.65,0,0,1,2.62-9.35c2.89-3.16,8.71-3.77,12.34-1.4q4.53,3,4.39,9.85a.66.66,0,0,1-.66.64"/><path class="cls-1" d="M362.62,151.89c-5.55,4.51-13.55,1.58-13.68-6.17,0-2.31,0-6.12,0-11.44a.3.3,0,0,1,.31-.3H353a.34.34,0,0,1,.34.34v11.4a4.25,4.25,0,0,0,4.72,4.22l.53-.05a4.81,4.81,0,0,0,4.28-4.78V134.27a.29.29,0,0,1,.29-.3h3.9a.28.28,0,0,1,.27.28v19.17a.54.54,0,0,1-.53.54h-3.13a.54.54,0,0,1-.53-.54v-1.27A.34.34,0,0,0,362.62,151.89Z"/><rect class="cls-1" x="397.92" y="133.98" width="4.46" height="19.98" rx="0.34"/><path class="cls-1" d="M417.67,150.24a6.3,6.3,0,1,0-5.83-6.28A6.07,6.07,0,0,0,417.67,150.24ZM428,144.05a10.34,10.34,0,1,1-10.25-10.15A10.2,10.2,0,0,1,428,144.05"/></g></g></svg>